<?xml version="1.0" encoding="UTF-8" standalone="no"?>
<svg
   xmlns:dc="http://purl.org/dc/elements/1.1/"
   xmlns:cc="http://creativecommons.org/ns#"
   xmlns:rdf="http://www.w3.org/1999/02/22-rdf-syntax-ns#"
   xmlns:svg="http://www.w3.org/2000/svg"
   xmlns="http://www.w3.org/2000/svg"
   xmlns:sodipodi="http://sodipodi.sourceforge.net/DTD/sodipodi-0.dtd"
   xmlns:inkscape="http://www.inkscape.org/namespaces/inkscape"
   inkscape:version="1.0 (4035a4f, 2020-05-01)"
   height="64"
   width="132"
   sodipodi:docname="logo (1).svg"
   xml:space="preserve"
   viewBox="0 0 132 63.999999"
   y="0px"
   x="0px"
   id="Vrstva_1"
   version="1.1"><metadata
   id="metadata2629"><rdf:RDF><cc:Work
       rdf:about=""><dc:format>image/svg+xml</dc:format><dc:type
         rdf:resource="http://purl.org/dc/dcmitype/StillImage" /><dc:title></dc:title></cc:Work></rdf:RDF></metadata><defs
   id="defs2627" /><sodipodi:namedview
   inkscape:current-layer="Vrstva_1"
   inkscape:window-maximized="0"
   inkscape:window-y="674"
   inkscape:window-x="188"
   inkscape:cy="31.756823"
   inkscape:cx="65.270015"
   inkscape:zoom="0.87303565"
   fit-margin-bottom="0"
   fit-margin-right="0"
   fit-margin-left="0"
   fit-margin-top="0"
   showgrid="false"
   id="namedview2625"
   inkscape:window-height="722"
   inkscape:window-width="1286"
   inkscape:pageshadow="2"
   inkscape:pageopacity="0"
   guidetolerance="10"
   gridtolerance="10"
   objecttolerance="10"
   borderopacity="1"
   bordercolor="#666666"
   pagecolor="#ffffff" />
<style
   id="style2616"
   type="text/css">
	.st0{fill-rule:evenodd;clip-rule:evenodd;fill:#C09A5D;}
	.st1{fill-rule:evenodd;clip-rule:evenodd;fill:#004289;}
</style>
<g
   transform="translate(-232.37,-389.18818)"
   id="g2622">
	<path
   id="path2618"
   d="m 282.11,415.11 c 0,0 2.17,1.79 3.83,3.01 -2.47,0.09 -2.59,1.2 -3.98,1.65 -1.56,0.73 -4.56,1.2 -4.11,0.83 0.41,-0.33 -2.59,-1.43 -4.37,-2.75 -4.05,-4.05 -6.91,-6.02 -6.91,-6.02 0,0 0.78,-1.62 1.97,-0.99 2.68,1.42 8.68,5.35 9.2,5.43 1.47,0.24 1.41,-0.04 2.04,-0.2 -0.1,0.45 -0.38,0.63 -0.92,0.67 0.64,0.26 1.26,0.26 1.94,0.01 0.91,-0.4 1.03,-0.79 1.31,-1.64 z m 14.65,-13.81 c 0,0 6.89,7.74 9.7,9.6 2.82,1.86 8.13,3.99 10.89,4.94 2.76,0.95 9.54,1.22 9.54,1.43 0,0.21 -4.8,0.94 -6.71,0.89 -1.91,-0.05 -7.85,0.86 -11.66,-2.08 -6.79,-5.23 -11.76,-14.78 -11.76,-14.78 z m -0.28,-3.71 c 0,0 2.32,0.85 4.02,1.1 1.7,0.24 13.12,1.56 17.34,3.86 3.37,1.83 4.59,3.66 5.89,4.27 1.3,0.61 3.62,0.75 3.62,1.01 0,0.26 0,0 0,0 0,0 -1.83,0.85 -6.58,-0.21 -4.75,-1.06 -7.55,-3.41 -13.03,-5.16 -5.48,-1.74 -6.1,-1.74 -8.08,-2.88 -2,-1.14 -3.18,-1.99 -3.18,-1.99 z m -3.2,-2.21 c 0.01,-0.05 2.22,0.39 3.31,0.21 1.11,-0.18 7.25,-2.25 11.22,-1.72 3.98,0.53 6.73,4.08 7.99,5.03 1.27,0.95 3.17,1.22 3.17,1.41 0,0.19 -1.1,0.2 -2.68,-0.08 -1.58,-0.28 -4.12,-2.21 -9.78,-2.7 -5.66,-0.49 -5.45,0.04 -7.85,-0.46 -2.4,-0.49 -5.4,-1.64 -5.38,-1.69 z m -3.14,-1.27 c 0,0 2.51,0.99 5.46,0.5 2.95,-0.5 6.37,-2.29 9.25,-1.94 2.89,0.35 2.6,0.49 3.34,0.57 0.74,0.07 1.27,0.06 1.27,-0.11 0,-0.16 -0.39,0.07 -1.59,-0.71 -1.2,-0.78 -4.22,-3.1 -7.22,-2.01 -2.99,1.09 -5,2.82 -6.41,3.24 -1.39,0.42 -4.1,0.46 -4.1,0.46 z m -3.38,-0.47 c 0,0 2.85,-0.16 4.54,-1.35 1.69,-1.2 3.45,-3.17 5.21,-3.1 1.76,0.07 3.69,0.38 3.69,0.56 0,0.12 -1.16,-0.21 -2.22,0.32 -1.06,0.53 -3.48,2.54 -5.73,3.06 -2.26,0.52 -5.49,0.51 -5.49,0.51 z m 1.9,5.49 -1.27,-0.02 0.17,0.42 c 1.26,0.65 2.42,0.87 3.31,2.08 l 0.42,1.62 c -1.26,-1.29 -2.14,-2.21 -3.98,-3.11 0.82,0.94 2.03,1.83 2.53,3.09 l -0.08,0.37 c -1.81,-1.66 -3.72,-2.96 -6.34,-3.26 -0.49,-0.1 -0.89,0.1 -1.38,0 0.87,-1.09 1.66,-1.85 3.16,-2.3 1.19,0.38 2.15,0.41 3.3,0.4 0.09,0.14 0.21,0.47 0.16,0.71 z m -1.92,7.32 c -0.29,0.52 -0.62,1.16 -1.11,1.06 l -0.23,-0.23 c 0.67,-0.75 0.93,-1.97 0.89,-3 0.3,-0.19 0.49,0.1 0.71,0.28 0,0.01 0.1,1.25 -0.26,1.89 z m -3.07,0.55 c -1.2,0.25 -0.28,-1.08 -0.57,-1.52 0.56,0.37 0.43,0.98 0.57,1.52 z m 9.12,4.49 -1.32,-0.41 c -0.65,-1.16 -1.51,-2.93 -2.06,-3.94 1.19,1.02 2.49,3.14 3.38,4.35 z m -17.63,1.81 c -2.4,-1.5 -4.03,-2.46 -6.71,-3.67 0.27,-0.07 0.73,0.16 0.69,-0.24 -0.78,-0.55 -1.54,0.05 -2.13,0.44 -0.32,0.31 -0.36,1.07 -0.99,1.06 -0.76,-0.03 -0.97,-0.84 -0.81,-1.58 0.14,-1.25 0.62,-2.26 1.99,-2.1 2.1,0.32 2.64,0.88 4.05,2.07 1.24,1.3 1.13,1.51 3.91,4.02 z m 30.28,5.27 c -3.26,1 -8.31,3.76 -8.31,3.76 0,0 -3.44,-2.16 -5.54,-3.11 -3.72,-1.68 -7.36,-3.96 -9.77,-7.02 0,0 7.17,5.11 11.83,5.97 1.59,0.34 3.23,0.14 4.58,-0.21 0.04,1.03 -0.75,1.41 -1.62,1.86 1,0.09 2.26,-0.41 3.05,-1.14 0.99,-1.06 0.96,-2.73 0.86,-4.03 1.53,1.23 3.54,2.61 4.92,3.92 z m -41.18,-8.43 c 0.02,0.51 0.16,1.05 0.45,1.5 -0.3,0.19 -0.18,0.62 -0.77,0.26 -1.59,-0.98 -0.55,-2.45 -0.07,-3.5 0.8,-0.21 0,1.15 0.39,1.74 z m 14.2,2.6 c -1.03,0.2 -1.05,0.79 -2.15,0.1 0.34,-0.14 0.42,-0.18 0.67,-0.52 1.12,0.3 0.79,0.09 1.48,0.42 z m -16.41,-2.43 c -0.06,0.88 -0.13,1.49 0.29,2.23 0.4,0.69 1.39,1.02 2.3,0.78 0.3,-0.08 0.27,-0.24 0.48,-0.06 0.14,0.54 -0.56,0.74 -1.09,0.92 -1,0.33 -1.9,-0.25 -2.43,-1.15 -0.37,-0.62 -0.23,-1.32 -0.25,-1.84 0.09,-0.37 0.43,-0.81 0.7,-0.88 z m 34.77,-10.71 c 0,0 3.39,2.11 6.01,3.25 2.62,1.14 8.54,2.85 17.39,7.69 5.26,2.88 18.29,2.52 18.29,2.73 0,0.21 -20.36,0.99 -28.9,-2.84 -5.38,-2.41 -12.79,-10.83 -12.79,-10.83 z m 40.82,33.02 c -0.05,0.26 -21.62,-1.85 -38.9,-9.54 l -1.9,1.13 c -0.61,-0.13 -0.36,-0.71 -0.7,-0.91 -1.74,-1.39 -3.89,-2.1 -6.01,-2.93 -0.51,0.02 -0.28,0.71 -0.79,0.72 -4.08,-0.61 -7.88,1.63 -11.57,2.76 0.29,-1.34 -1.45,-1.58 -2.08,-2.23 -6.44,-3.68 -5.78,-6.96 -9.64,-9.18 -0.62,0.51 -1.52,0.77 -2.38,0.39 -0.78,-0.35 -1.05,-0.97 -1.27,-1.8 -0.32,-1.18 0.2,-2.13 0.77,-3.03 0.57,-0.9 1.76,0.12 2.02,-1.1 0.98,-0.43 2.26,-0.76 3.95,0.03 1.58,0.73 2.5,1.42 3.71,2.47 0.16,-0.73 0.4,-0.79 1.02,-1.3 -0.14,-0.54 -0.5,-1.25 0.12,-1.76 0.6,-1.02 1.94,-0.73 2.76,-1.58 1.99,-0.98 3.61,1.02 5.53,1.56 0.18,-0.85 -0.18,-1.57 -0.68,-2.19 -0.82,-0.94 -2.36,-0.88 -3.06,-1.8 -0.21,-0.81 -0.45,-1.5 -0.95,-2.12 l 0.08,-0.37 c 0.98,0.21 1.11,1.38 1.44,2.22 0.15,-0.1 0.46,0.23 0.51,-0.02 -0.28,-1.08 -0.78,-2.33 -1.41,-2.98 l 0.1,-0.49 4.72,-1.8 c 0.34,-1.59 1.55,-2.48 2.97,-3.19 2.02,-1.17 2.75,-3.25 4.27,-3.82 0.93,-0.3 3.1,-0.35 3.1,-0.23 0,0.12 -1.94,1.38 -2.92,2.39 -0.88,0.9 -3.82,1.7 -3.82,1.7 0,0 -2.14,0.41 -2.9,2.8 0.88,0.06 1.79,-0.57 2.73,-0.75 l 3.23,2.22 -0.08,0.3 c -1.67,-1.12 -4.09,-1.76 -5.91,-1 -1.38,0.47 -2.66,1.09 -4.06,1.69 0.34,0.2 1.07,0.36 1.12,0.75 l -1.06,0.79 c 0.25,1.2 0.68,2.19 1.85,2.69 l 2.14,-1.07 c 0.67,1.04 1.86,2.05 1.55,3.52 l -0.81,2 c 1.07,0.36 1.79,1.78 2.92,1.26 1.12,0.11 2,0.81 2.6,1.57 l 0.15,-0.1 c -0.72,-1.43 -2.33,-5.21 -2.33,-5.21 2.69,1.72 4.84,4.22 6.72,6.78 -0.95,-2.75 -1.83,-8.8 -1.83,-8.8 1.53,3 2.56,7.17 5.09,9.63 0.51,0.62 1.24,0.77 1.45,1.58 -2.73,-0.96 -5.72,-2.49 -8.9,-2.53 -1.34,-0.29 -2.23,-1.49 -3.52,-2.02 -2.8,-1.23 -5.34,-3.05 -7.97,-4.5 -0.51,0.02 -1.15,0.01 -1.35,0.35 0.36,0.71 1.11,1.38 1.61,2 -1.39,-0.04 -3.05,-3.07 -4.32,-0.66 -0.37,0.56 0.16,1.05 0.72,1.43 0.65,0.52 1.61,0.22 2.14,0.71 l -0.3,0.19 c -1.25,-0.14 -3,-0.89 -3.68,0.49 -0.38,1.19 0.73,1.94 1.46,2.73 0.49,0.1 0.73,0.16 1.05,-0.16 -0.49,-0.1 -1.19,-0.38 -1.33,-0.92 2,0.17 4.03,0.86 5.78,1.61 l -0.35,-1.35 c 2.14,3.13 5.46,5.5 8.89,7.37 2.68,1.21 5.83,2.24 7.95,4.22 3.03,-1.65 6.39,-2.7 9.94,-3.22 0,0 0.01,1.15 -0.53,1.29 1.28,1.17 0.16,2.27 1.86,3.27 13.19,5.14 29.33,7.79 29.29,8.05 z"
   class="st0" />
	<path
   id="path2620"
   d="m 363.66,442.59 c 0,-1.17 -0.95,-2.13 -2.13,-2.13 -1.17,0 -2.12,0.95 -2.12,2.13 0,1.17 0.95,2.12 2.12,2.12 1.18,0 2.13,-0.95 2.13,-2.12 z m -0.21,0 c 0,1.06 -0.86,1.92 -1.92,1.92 -1.05,0 -1.9,-0.88 -1.9,-1.92 0,-1.05 0.85,-1.9 1.9,-1.9 1.06,-0.01 1.92,0.84 1.92,1.9 z m -0.69,1.19 v -0.1 c -0.14,-0.01 -0.22,-0.07 -0.29,-0.18 l -0.68,-0.92 c 0.32,-0.05 0.6,-0.27 0.6,-0.61 0,-0.45 -0.44,-0.66 -0.84,-0.66 -0.36,0 -0.73,0.01 -1.09,0.01 v 0.11 c 0.26,-0.01 0.27,0.06 0.27,0.3 v 1.67 c 0,0.23 -0.09,0.3 -0.31,0.3 v 0.09 h 1.04 v -0.1 c -0.13,0 -0.33,-0.02 -0.33,-0.19 v -0.85 h 0.2 l 0.85,1.15 h 0.58 z m -0.78,-1.8 c 0,0.42 -0.53,0.48 -0.84,0.51 v -0.97 c 0.04,-0.01 0.07,-0.01 0.11,-0.01 0.32,0 0.73,0.08 0.73,0.47 z M 255.2,420.31 c 1.62,0 2.75,1.42 2.75,2.75 0,1.13 -0.95,2.75 -2.8,2.75 -1.52,0 -2.8,-1.15 -2.8,-2.7 0.01,-1.53 1.06,-2.8 2.85,-2.8 z m 2.42,7.48 v 16.92 H 252.7 V 428.6 Z m 26.99,2.11 c 2.15,0 2.66,3.4 2.66,4.32 0,0.94 -0.4,2.63 -0.92,3.36 -0.55,0.75 -1.04,0.82 -1.66,0.82 -2.18,0 -2.73,-2.95 -2.73,-4.15 0,-1.23 0.26,-2.14 0.54,-2.81 0.42,-1.05 1.31,-1.54 2.11,-1.54 z m -0.26,-1.85 h 7.88 v 2.55 l -2.18,-0.34 c 1.3,1.58 1.66,2.7 1.66,4.16 0,1.81 -1.64,5.76 -7.14,5.76 -1.23,0 -1.32,-0.1 -1.84,-0.19 -0.14,0.26 -0.6,1.11 -0.6,1.45 0,1.71 10.86,-0.64 10.86,5.12 0,4.76 -4.94,6 -8.04,6 l -1.66,-0.05 c -1.78,-0.17 -2.82,-0.42 -4.23,-0.88 -0.24,-0.75 -0.43,-1.51 -0.66,-2.29 1.68,0.51 3.34,0.95 5,1.04 0.52,0.02 0.71,0.05 0.83,0.05 1.42,0 4.46,-0.57 4.46,-2.25 0,-0.52 -0.53,-1.02 -1.17,-1.32 -2.48,-1.17 -4.95,-0.65 -7.39,-1.42 -0.47,-0.15 -1.87,-0.98 -1.87,-2.42 0,-1.25 1.22,-2.66 2.51,-3.74 -2.6,-1.65 -3.27,-3.27 -3.27,-5.22 0,-3.9 4.19,-6.01 6.85,-6.01 z m 29.04,24.37 h -4.93 v -23.84 l 4.96,-0.76 v 1.52 c 1.25,-0.71 2.75,-1.22 4.02,-1.33 0.56,-0.05 0.81,-0.05 0.93,-0.05 1.47,0 3.08,0.49 4.53,2.09 0.28,0.3 0.48,0.71 0.65,1.05 0.62,1.22 1.03,2.48 1.08,3.71 0.02,0.62 0.05,0.88 0.05,1 0,4.72 -2.52,8.9 -7.23,9.27 -0.56,0.04 -0.88,0.05 -1,0.05 -0.7,0 -1.34,-0.14 -2.3,-0.45 -0.15,-0.47 -0.43,-2.07 -0.43,-2.07 0.63,0.28 1.28,0.49 1.97,0.49 2.37,0 3.77,-2.16 3.77,-6.59 0,-1.3 -0.39,-4.44 -1.86,-5.33 -0.39,-0.23 -1.03,-0.51 -1.43,-0.51 -0.84,0 -1.92,0.32 -2.77,0.96 z m 21.69,-9.57 v -6.24 h -0.39 c -0.56,0 -3.82,0.73 -3.82,3.89 0,0.5 0.21,1.81 0.96,2.07 0.27,0.09 0.81,0.11 0.93,0.11 0.66,0 1.32,-0.22 2.02,-0.43 -0.12,0.5 -0.22,1.64 -0.32,2.18 -0.92,0.3 -1.7,0.63 -2.67,0.72 -0.56,0.05 -0.86,0.05 -0.97,0.05 -2.5,0 -5.03,-1.24 -5.03,-4.32 0,-5.46 9.3,-6.3 9.3,-6.3 v -1.42 c 0,-0.56 -0.14,-2.82 -2.97,-2.82 -1.54,0 -4.26,0.62 -5.04,0.94 l 0.28,-2.17 c 0.57,-0.21 3.16,-0.99 4.06,-1.1 4.52,-0.56 6.84,1.17 7.58,2.14 0.66,0.87 1.07,2.33 1.07,3.39 v 8.96 c 0,0.95 0.65,2 1.42,2.19 h -4.84 c -1.2,0.02 -1.57,-0.42 -1.57,-1.84 z m 12.49,-15.05 v 2.2 c 2.28,-1.46 3.43,-1.91 5.42,-1.91 2.69,0 4.69,1.92 4.69,6.29 v 10.35 h -4.97 v -9.89 c 0,-1.46 -0.26,-2.25 -0.73,-2.92 -0.3,-0.43 -1.08,-0.75 -1.53,-0.75 -1,0 -2.02,0.55 -2.87,1.27 v 12.29 h -4.92 v -16.11 z m -82.05,0 v 2.2 c 2.28,-1.46 3.43,-1.91 5.42,-1.91 2.69,0 4.69,1.92 4.69,6.29 v 10.35 h -4.97 v -9.89 c 0,-0.97 -0.26,-2.25 -0.73,-2.92 -0.3,-0.43 -1.08,-0.75 -1.53,-0.75 -1,0 -2.02,0.55 -2.87,1.27 v 12.29 h -4.92 v -16.11 z m -28.31,5.2 8.97,-10.88 h 4.39 l -8.44,10.02 9.12,12.58 h -6.19 z m 0,11.71 h -4.84 v -22.59 h 4.84 z m 63.31,-16.73 c 2.32,0 4.04,0.93 4.04,0.93 0,0 0.45,1.61 0.63,2.4 -1.51,-0.74 -2.8,-1.19 -4.19,-1.19 -0.79,0 -2.54,0.26 -2.54,1.85 0,2.47 7.97,2.63 7.97,7.73 0,2.11 -1.08,5.42 -7.18,5.42 -2.48,0 -4.73,-0.87 -4.89,-0.92 -0.24,-0.75 -0.36,-1.53 -0.59,-2.32 0.83,0.28 2.57,1.13 4.78,1.13 1.94,0 3.22,-1.03 3.22,-2.25 0,-0.59 -0.36,-1.32 -1.13,-1.77 -1.99,-1.16 -4.17,-1.58 -6.02,-3.62 -0.58,-0.64 -0.78,-1.71 -0.78,-2.36 0.02,-2.89 2.66,-5.03 6.68,-5.03 z"
   class="st1" />
</g>
</svg>
